<?xml version="1.0" encoding="UTF-8" standalone="no"?>
<!DOCTYPE svg PUBLIC "-//W3C//DTD SVG 1.1//EN"
 "http://www.w3.org/Graphics/SVG/1.1/DTD/svg11.dtd">
<!-- Generated by graphviz version 5.0.0 (20220707.1540)
 -->
<!-- Title: dependencies Pages: 1 -->
<svg width="290pt" height="174pt"
 viewBox="0.00 0.00 290.00 173.80" xmlns="http://www.w3.org/2000/svg" xmlns:xlink="http://www.w3.org/1999/xlink">
<g id="graph0" class="graph" transform="scale(1 1) rotate(0) translate(4 169.8)">
<title>dependencies</title>
<polygon fill="white" stroke="transparent" points="-4,4 -4,-169.8 286,-169.8 286,4 -4,4"/>
<text text-anchor="middle" x="141" y="-8.2" font-family="sans-serif" font-size="14.00">dependencies</text>
<g id="clust1" class="cluster">
<title>cluster_BagModule</title>
<polygon fill="none" stroke="black" stroke-dasharray="1,5" points="8,-32.8 8,-157.8 274,-157.8 274,-32.8 8,-32.8"/>
</g>
<g id="clust6" class="cluster">
<title>cluster_BagModule_providers</title>
<polygon fill="none" stroke="black" points="138,-40.8 138,-92.8 266,-92.8 266,-40.8 138,-40.8"/>
</g>
<g id="clust3" class="cluster">
<title>cluster_BagModule_imports</title>
<polygon fill="none" stroke="black" points="16,-40.8 16,-92.8 130,-92.8 130,-40.8 16,-40.8"/>
</g>
<!-- PrismaModule -->
<g id="node1" class="node">
<title>PrismaModule</title>
<polygon fill="#8dd3c7" stroke="black" points="122.44,-84.8 119.44,-88.8 98.44,-88.8 95.44,-84.8 23.56,-84.8 23.56,-48.8 122.44,-48.8 122.44,-84.8"/>
<text text-anchor="middle" x="73" y="-62.6" font-family="Times,serif" font-size="14.00">PrismaModule</text>
</g>
<!-- BagModule -->
<g id="node2" class="node">
<title>BagModule</title>
<polygon fill="#8dd3c7" stroke="black" points="178.1,-149.8 175.1,-153.8 154.1,-153.8 151.1,-149.8 95.9,-149.8 95.9,-113.8 178.1,-113.8 178.1,-149.8"/>
<text text-anchor="middle" x="137" y="-127.6" font-family="Times,serif" font-size="14.00">BagModule</text>
</g>
<!-- PrismaModule&#45;&gt;BagModule -->
<g id="edge1" class="edge">
<title>PrismaModule&#45;&gt;BagModule</title>
<path fill="none" stroke="black" d="M109.08,-84.91C109.08,-84.91 109.08,-103.79 109.08,-103.79"/>
<polygon fill="black" stroke="black" points="105.58,-103.79 109.08,-113.79 112.58,-103.79 105.58,-103.79"/>
</g>
<!-- BagService -->
<g id="node3" class="node">
<title>BagService</title>
<ellipse fill="#fdb462" stroke="black" cx="202" cy="-66.8" rx="55.6" ry="18"/>
<text text-anchor="middle" x="202" y="-62.6" font-family="Times,serif" font-size="14.00">BagService</text>
</g>
<!-- BagService&#45;&gt;BagModule -->
<g id="edge2" class="edge">
<title>BagService&#45;&gt;BagModule</title>
<path fill="none" stroke="black" d="M162.25,-79.64C162.25,-79.64 162.25,-103.32 162.25,-103.32"/>
<polygon fill="black" stroke="black" points="158.75,-103.32 162.25,-113.32 165.75,-103.32 158.75,-103.32"/>
</g>
</g>
</svg>
