<?xml version="1.0" encoding="UTF-8" standalone="no"?>
<!DOCTYPE svg PUBLIC "-//W3C//DTD SVG 1.1//EN"
 "http://www.w3.org/Graphics/SVG/1.1/DTD/svg11.dtd">
<!-- Generated by graphviz version 5.0.0 (20220707.1540)
 -->
<!-- Title: dependencies Pages: 1 -->
<svg width="853pt" height="174pt"
 viewBox="0.00 0.00 853.00 173.80" xmlns="http://www.w3.org/2000/svg" xmlns:xlink="http://www.w3.org/1999/xlink">
<g id="graph0" class="graph" transform="scale(1 1) rotate(0) translate(4 169.8)">
<title>dependencies</title>
<polygon fill="white" stroke="transparent" points="-4,4 -4,-169.8 849,-169.8 849,4 -4,4"/>
<text text-anchor="middle" x="422.5" y="-8.2" font-family="sans-serif" font-size="14.00">dependencies</text>
<g id="clust1" class="cluster">
<title>cluster_AppModule</title>
<polygon fill="none" stroke="black" stroke-dasharray="1,5" points="8,-32.8 8,-157.8 837,-157.8 837,-32.8 8,-32.8"/>
</g>
<g id="clust6" class="cluster">
<title>cluster_AppModule_providers</title>
<polygon fill="none" stroke="black" points="699,-40.8 699,-92.8 829,-92.8 829,-40.8 699,-40.8"/>
</g>
<g id="clust3" class="cluster">
<title>cluster_AppModule_imports</title>
<polygon fill="none" stroke="black" points="16,-40.8 16,-92.8 691,-92.8 691,-40.8 16,-40.8"/>
</g>
<!-- AuthModule -->
<g id="node1" class="node">
<title>AuthModule</title>
<polygon fill="#8dd3c7" stroke="black" points="682.55,-84.8 679.55,-88.8 658.55,-88.8 655.55,-84.8 595.45,-84.8 595.45,-48.8 682.55,-48.8 682.55,-84.8"/>
<text text-anchor="middle" x="639" y="-62.6" font-family="Times,serif" font-size="14.00">AuthModule</text>
</g>
<!-- AppModule -->
<g id="node7" class="node">
<title>AppModule</title>
<polygon fill="#8dd3c7" stroke="black" points="463.66,-149.8 460.66,-153.8 439.66,-153.8 436.66,-149.8 380.34,-149.8 380.34,-113.8 463.66,-113.8 463.66,-149.8"/>
<text text-anchor="middle" x="422" y="-127.6" font-family="Times,serif" font-size="14.00">AppModule</text>
</g>
<!-- AuthModule&#45;&gt;AppModule -->
<g id="edge1" class="edge">
<title>AuthModule&#45;&gt;AppModule</title>
<path fill="none" stroke="black" d="M639,-84.91C639,-104.14 639,-131.8 639,-131.8 639,-131.8 473.84,-131.8 473.84,-131.8"/>
<polygon fill="black" stroke="black" points="473.84,-128.3 463.84,-131.8 473.84,-135.3 473.84,-128.3"/>
</g>
<!-- BagModule -->
<g id="node2" class="node">
<title>BagModule</title>
<polygon fill="#8dd3c7" stroke="black" points="577.1,-84.8 574.1,-88.8 553.1,-88.8 550.1,-84.8 494.9,-84.8 494.9,-48.8 577.1,-48.8 577.1,-84.8"/>
<text text-anchor="middle" x="536" y="-62.6" font-family="Times,serif" font-size="14.00">BagModule</text>
</g>
<!-- BagModule&#45;&gt;AppModule -->
<g id="edge2" class="edge">
<title>BagModule&#45;&gt;AppModule</title>
<path fill="none" stroke="black" d="M536,-84.83C536,-101.2 536,-122.8 536,-122.8 536,-122.8 473.8,-122.8 473.8,-122.8"/>
<polygon fill="black" stroke="black" points="473.8,-119.3 463.8,-122.8 473.8,-126.3 473.8,-119.3"/>
</g>
<!-- CategoryModule -->
<g id="node3" class="node">
<title>CategoryModule</title>
<polygon fill="#8dd3c7" stroke="black" points="477.37,-84.8 474.37,-88.8 453.37,-88.8 450.37,-84.8 366.63,-84.8 366.63,-48.8 477.37,-48.8 477.37,-84.8"/>
<text text-anchor="middle" x="422" y="-62.6" font-family="Times,serif" font-size="14.00">CategoryModule</text>
</g>
<!-- CategoryModule&#45;&gt;AppModule -->
<g id="edge3" class="edge">
<title>CategoryModule&#45;&gt;AppModule</title>
<path fill="none" stroke="black" d="M422,-84.91C422,-84.91 422,-103.79 422,-103.79"/>
<polygon fill="black" stroke="black" points="418.5,-103.79 422,-113.79 425.5,-103.79 418.5,-103.79"/>
</g>
<!-- PrismaModule -->
<g id="node4" class="node">
<title>PrismaModule</title>
<polygon fill="#8dd3c7" stroke="black" points="348.44,-84.8 345.44,-88.8 324.44,-88.8 321.44,-84.8 249.56,-84.8 249.56,-48.8 348.44,-48.8 348.44,-84.8"/>
<text text-anchor="middle" x="299" y="-62.6" font-family="Times,serif" font-size="14.00">PrismaModule</text>
</g>
<!-- PrismaModule&#45;&gt;AppModule -->
<g id="edge4" class="edge">
<title>PrismaModule&#45;&gt;AppModule</title>
<path fill="none" stroke="black" d="M299,-84.83C299,-101.2 299,-122.8 299,-122.8 299,-122.8 370.01,-122.8 370.01,-122.8"/>
<polygon fill="black" stroke="black" points="370.01,-126.3 380.01,-122.8 370.01,-119.3 370.01,-126.3"/>
</g>
<!-- ProductModule -->
<g id="node5" class="node">
<title>ProductModule</title>
<polygon fill="#8dd3c7" stroke="black" points="231.6,-84.8 228.6,-88.8 207.6,-88.8 204.6,-84.8 128.4,-84.8 128.4,-48.8 231.6,-48.8 231.6,-84.8"/>
<text text-anchor="middle" x="180" y="-62.6" font-family="Times,serif" font-size="14.00">ProductModule</text>
</g>
<!-- ProductModule&#45;&gt;AppModule -->
<g id="edge5" class="edge">
<title>ProductModule&#45;&gt;AppModule</title>
<path fill="none" stroke="black" d="M180,-84.91C180,-104.14 180,-131.8 180,-131.8 180,-131.8 370.12,-131.8 370.12,-131.8"/>
<polygon fill="black" stroke="black" points="370.12,-135.3 380.12,-131.8 370.12,-128.3 370.12,-135.3"/>
</g>
<!-- UserModule -->
<g id="node6" class="node">
<title>UserModule</title>
<polygon fill="#8dd3c7" stroke="black" points="109.99,-84.8 106.99,-88.8 85.99,-88.8 82.99,-84.8 24.01,-84.8 24.01,-48.8 109.99,-48.8 109.99,-84.8"/>
<text text-anchor="middle" x="67" y="-62.6" font-family="Times,serif" font-size="14.00">UserModule</text>
</g>
<!-- UserModule&#45;&gt;AppModule -->
<g id="edge6" class="edge">
<title>UserModule&#45;&gt;AppModule</title>
<path fill="none" stroke="black" d="M67,-85.09C67,-107.01 67,-140.8 67,-140.8 67,-140.8 370.23,-140.8 370.23,-140.8"/>
<polygon fill="black" stroke="black" points="370.23,-144.3 380.23,-140.8 370.23,-137.3 370.23,-144.3"/>
</g>
<!-- AppService -->
<g id="node8" class="node">
<title>AppService</title>
<ellipse fill="#fdb462" stroke="black" cx="764" cy="-66.8" rx="56.75" ry="18"/>
<text text-anchor="middle" x="764" y="-62.6" font-family="Times,serif" font-size="14.00">AppService</text>
</g>
<!-- AppService&#45;&gt;AppModule -->
<g id="edge7" class="edge">
<title>AppService&#45;&gt;AppModule</title>
<path fill="none" stroke="black" d="M764,-85.09C764,-107.01 764,-140.8 764,-140.8 764,-140.8 473.94,-140.8 473.94,-140.8"/>
<polygon fill="black" stroke="black" points="473.94,-137.3 463.94,-140.8 473.94,-144.3 473.94,-137.3"/>
</g>
</g>
</svg>
