<?xml version="1.0" encoding="UTF-8" standalone="no"?>
<!DOCTYPE svg PUBLIC "-//W3C//DTD SVG 1.1//EN"
 "http://www.w3.org/Graphics/SVG/1.1/DTD/svg11.dtd">
<!-- Generated by graphviz version 5.0.0 (20220707.1540)
 -->
<!-- Title: dependencies Pages: 1 -->
<svg width="2014pt" height="250pt"
 viewBox="0.00 0.00 2014.00 249.80" xmlns="http://www.w3.org/2000/svg" xmlns:xlink="http://www.w3.org/1999/xlink">
<g id="graph0" class="graph" transform="scale(1 1) rotate(0) translate(4 245.8)">
<title>dependencies</title>
<polygon fill="white" stroke="transparent" points="-4,4 -4,-245.8 2010,-245.8 2010,4 -4,4"/>
<text text-anchor="middle" x="1003" y="-8.2" font-family="sans-serif" font-size="14.00">dependencies</text>
<g id="clust1" class="cluster">
<title>cluster_AppModule</title>
<polygon fill="none" stroke="black" stroke-dasharray="1,5" points="976,-32.8 976,-233.8 1700,-233.8 1700,-32.8 976,-32.8"/>
</g>
<g id="clust3" class="cluster">
<title>cluster_AppModule_imports</title>
<polygon fill="none" stroke="black" points="1122,-40.8 1122,-168.8 1680,-168.8 1680,-40.8 1122,-40.8"/>
</g>
<g id="clust6" class="cluster">
<title>cluster_AppModule_providers</title>
<polygon fill="none" stroke="black" points="984,-116.8 984,-168.8 1114,-168.8 1114,-116.8 984,-116.8"/>
</g>
<g id="clust7" class="cluster">
<title>cluster_AuthModule</title>
<polygon fill="none" stroke="black" stroke-dasharray="1,5" points="8,-32.8 8,-100.8 290,-100.8 290,-32.8 8,-32.8"/>
</g>
<g id="clust12" class="cluster">
<title>cluster_AuthModule_providers</title>
<polygon fill="none" stroke="black" points="16,-40.8 16,-92.8 282,-92.8 282,-40.8 16,-40.8"/>
</g>
<g id="clust13" class="cluster">
<title>cluster_BagModule</title>
<polygon fill="none" stroke="black" stroke-dasharray="1,5" points="298,-32.8 298,-100.8 442,-100.8 442,-32.8 298,-32.8"/>
</g>
<g id="clust18" class="cluster">
<title>cluster_BagModule_providers</title>
<polygon fill="none" stroke="black" points="306,-40.8 306,-92.8 434,-92.8 434,-40.8 306,-40.8"/>
</g>
<g id="clust19" class="cluster">
<title>cluster_CategoryModule</title>
<polygon fill="none" stroke="black" stroke-dasharray="1,5" points="450,-32.8 450,-100.8 632,-100.8 632,-32.8 450,-32.8"/>
</g>
<g id="clust24" class="cluster">
<title>cluster_CategoryModule_providers</title>
<polygon fill="none" stroke="black" points="458,-40.8 458,-92.8 624,-92.8 624,-40.8 458,-40.8"/>
</g>
<g id="clust25" class="cluster">
<title>cluster_PrismaModule</title>
<polygon fill="none" stroke="black" stroke-dasharray="1,5" points="1708,-108.8 1708,-176.8 1998,-176.8 1998,-108.8 1708,-108.8"/>
</g>
<g id="clust28" class="cluster">
<title>cluster_PrismaModule_exports</title>
<polygon fill="none" stroke="black" points="1874,-116.8 1874,-168.8 1990,-168.8 1990,-116.8 1874,-116.8"/>
</g>
<g id="clust30" class="cluster">
<title>cluster_PrismaModule_providers</title>
<polygon fill="none" stroke="black" points="1716,-116.8 1716,-168.8 1866,-168.8 1866,-116.8 1716,-116.8"/>
</g>
<g id="clust31" class="cluster">
<title>cluster_ProductModule</title>
<polygon fill="none" stroke="black" stroke-dasharray="1,5" points="640,-32.8 640,-100.8 812,-100.8 812,-32.8 640,-32.8"/>
</g>
<g id="clust36" class="cluster">
<title>cluster_ProductModule_providers</title>
<polygon fill="none" stroke="black" points="648,-40.8 648,-92.8 804,-92.8 804,-40.8 648,-40.8"/>
</g>
<g id="clust37" class="cluster">
<title>cluster_UserModule</title>
<polygon fill="none" stroke="black" stroke-dasharray="1,5" points="820,-32.8 820,-100.8 968,-100.8 968,-32.8 820,-32.8"/>
</g>
<g id="clust42" class="cluster">
<title>cluster_UserModule_providers</title>
<polygon fill="none" stroke="black" points="828,-40.8 828,-92.8 960,-92.8 960,-40.8 828,-40.8"/>
</g>
<!-- AuthModule -->
<g id="node1" class="node">
<title>AuthModule</title>
<polygon fill="#8dd3c7" stroke="black" points="1217.55,-160.8 1214.55,-164.8 1193.55,-164.8 1190.55,-160.8 1130.45,-160.8 1130.45,-124.8 1217.55,-124.8 1217.55,-160.8"/>
<text text-anchor="middle" x="1174" y="-138.6" font-family="Times,serif" font-size="14.00">AuthModule</text>
</g>
<!-- AppModule -->
<g id="node7" class="node">
<title>AppModule</title>
<polygon fill="#8dd3c7" stroke="black" points="1432.66,-225.8 1429.66,-229.8 1408.66,-229.8 1405.66,-225.8 1349.34,-225.8 1349.34,-189.8 1432.66,-189.8 1432.66,-225.8"/>
<text text-anchor="middle" x="1391" y="-203.6" font-family="Times,serif" font-size="14.00">AppModule</text>
</g>
<!-- AuthModule&#45;&gt;AppModule -->
<g id="edge1" class="edge">
<title>AuthModule&#45;&gt;AppModule</title>
<path fill="none" stroke="black" d="M1174,-160.91C1174,-180.14 1174,-207.8 1174,-207.8 1174,-207.8 1339.16,-207.8 1339.16,-207.8"/>
<polygon fill="black" stroke="black" points="1339.16,-211.3 1349.16,-207.8 1339.16,-204.3 1339.16,-211.3"/>
</g>
<!-- BagModule -->
<g id="node2" class="node">
<title>BagModule</title>
<polygon fill="#8dd3c7" stroke="black" points="1318.1,-160.8 1315.1,-164.8 1294.1,-164.8 1291.1,-160.8 1235.9,-160.8 1235.9,-124.8 1318.1,-124.8 1318.1,-160.8"/>
<text text-anchor="middle" x="1277" y="-138.6" font-family="Times,serif" font-size="14.00">BagModule</text>
</g>
<!-- BagModule&#45;&gt;AppModule -->
<g id="edge2" class="edge">
<title>BagModule&#45;&gt;AppModule</title>
<path fill="none" stroke="black" d="M1277,-160.83C1277,-177.2 1277,-198.8 1277,-198.8 1277,-198.8 1339.2,-198.8 1339.2,-198.8"/>
<polygon fill="black" stroke="black" points="1339.2,-202.3 1349.2,-198.8 1339.2,-195.3 1339.2,-202.3"/>
</g>
<!-- CategoryModule -->
<g id="node3" class="node">
<title>CategoryModule</title>
<polygon fill="#8dd3c7" stroke="black" points="1446.37,-160.8 1443.37,-164.8 1422.37,-164.8 1419.37,-160.8 1335.63,-160.8 1335.63,-124.8 1446.37,-124.8 1446.37,-160.8"/>
<text text-anchor="middle" x="1391" y="-138.6" font-family="Times,serif" font-size="14.00">CategoryModule</text>
</g>
<!-- CategoryModule&#45;&gt;AppModule -->
<g id="edge3" class="edge">
<title>CategoryModule&#45;&gt;AppModule</title>
<path fill="none" stroke="black" d="M1391,-160.91C1391,-160.91 1391,-179.79 1391,-179.79"/>
<polygon fill="black" stroke="black" points="1387.5,-179.79 1391,-189.79 1394.5,-179.79 1387.5,-179.79"/>
</g>
<!-- PrismaModule -->
<g id="node4" class="node">
<title>PrismaModule</title>
<polygon fill="#8dd3c7" stroke="black" points="1618.44,-84.8 1615.44,-88.8 1594.44,-88.8 1591.44,-84.8 1519.56,-84.8 1519.56,-48.8 1618.44,-48.8 1618.44,-84.8"/>
<text text-anchor="middle" x="1569" y="-62.6" font-family="Times,serif" font-size="14.00">PrismaModule</text>
</g>
<!-- PrismaModule&#45;&gt;AuthModule -->
<g id="edge8" class="edge">
<title>PrismaModule&#45;&gt;AuthModule</title>
<path fill="none" stroke="black" d="M1519.45,-57.8C1417.96,-57.8 1195.89,-57.8 1195.89,-57.8 1195.89,-57.8 1195.89,-114.77 1195.89,-114.77"/>
<polygon fill="black" stroke="black" points="1192.39,-114.77 1195.89,-124.77 1199.39,-114.77 1192.39,-114.77"/>
</g>
<!-- PrismaModule&#45;&gt;BagModule -->
<g id="edge11" class="edge">
<title>PrismaModule&#45;&gt;BagModule</title>
<path fill="none" stroke="black" d="M1519.56,-66.8C1439.59,-66.8 1290.68,-66.8 1290.68,-66.8 1290.68,-66.8 1290.68,-114.79 1290.68,-114.79"/>
<polygon fill="black" stroke="black" points="1287.18,-114.79 1290.68,-124.79 1294.18,-114.79 1287.18,-114.79"/>
</g>
<!-- PrismaModule&#45;&gt;CategoryModule -->
<g id="edge13" class="edge">
<title>PrismaModule&#45;&gt;CategoryModule</title>
<path fill="none" stroke="black" d="M1519.4,-75.8C1472.57,-75.8 1409.48,-75.8 1409.48,-75.8 1409.48,-75.8 1409.48,-114.49 1409.48,-114.49"/>
<polygon fill="black" stroke="black" points="1405.98,-114.49 1409.48,-124.49 1412.98,-114.49 1405.98,-114.49"/>
</g>
<!-- ProductModule -->
<g id="node5" class="node">
<title>ProductModule</title>
<polygon fill="#8dd3c7" stroke="black" points="1567.6,-160.8 1564.6,-164.8 1543.6,-164.8 1540.6,-160.8 1464.4,-160.8 1464.4,-124.8 1567.6,-124.8 1567.6,-160.8"/>
<text text-anchor="middle" x="1516" y="-138.6" font-family="Times,serif" font-size="14.00">ProductModule</text>
</g>
<!-- PrismaModule&#45;&gt;ProductModule -->
<g id="edge17" class="edge">
<title>PrismaModule&#45;&gt;ProductModule</title>
<path fill="none" stroke="black" d="M1543.67,-84.81C1543.67,-84.81 1543.67,-114.65 1543.67,-114.65"/>
<polygon fill="black" stroke="black" points="1540.17,-114.65 1543.67,-124.65 1547.17,-114.65 1540.17,-114.65"/>
</g>
<!-- UserModule -->
<g id="node6" class="node">
<title>UserModule</title>
<polygon fill="#8dd3c7" stroke="black" points="1671.99,-160.8 1668.99,-164.8 1647.99,-164.8 1644.99,-160.8 1586.01,-160.8 1586.01,-124.8 1671.99,-124.8 1671.99,-160.8"/>
<text text-anchor="middle" x="1629" y="-138.6" font-family="Times,serif" font-size="14.00">UserModule</text>
</g>
<!-- PrismaModule&#45;&gt;UserModule -->
<g id="edge19" class="edge">
<title>PrismaModule&#45;&gt;UserModule</title>
<path fill="none" stroke="black" d="M1607.48,-84.81C1607.48,-84.81 1607.48,-114.65 1607.48,-114.65"/>
<polygon fill="black" stroke="black" points="1603.98,-114.65 1607.48,-124.65 1610.98,-114.65 1603.98,-114.65"/>
</g>
<!-- PrismaModule&#45;&gt;AppModule -->
<g id="edge4" class="edge">
<title>PrismaModule&#45;&gt;AppModule</title>
<path fill="none" stroke="black" d="M1576.78,-84.94C1576.78,-123.03 1576.78,-207.8 1576.78,-207.8 1576.78,-207.8 1442.69,-207.8 1442.69,-207.8"/>
<polygon fill="black" stroke="black" points="1442.69,-204.3 1432.69,-207.8 1442.69,-211.3 1442.69,-204.3"/>
</g>
<!-- PrismaService  -->
<g id="node13" class="node">
<title>PrismaService </title>
<polygon fill="#fb8072" stroke="black" points="1982.37,-160.8 1881.63,-160.8 1881.63,-124.8 1982.37,-124.8 1982.37,-160.8"/>
<text text-anchor="middle" x="1932" y="-138.6" font-family="Times,serif" font-size="14.00">PrismaService </text>
</g>
<!-- PrismaModule&#45;&gt;PrismaService  -->
<g id="edge15" class="edge">
<title>PrismaModule&#45;&gt;PrismaService </title>
<path fill="none" stroke="black" stroke-dasharray="5,2" d="M1618.33,-60.8C1717.58,-60.8 1932,-60.8 1932,-60.8 1932,-60.8 1932,-114.6 1932,-114.6"/>
<polygon fill="black" stroke="black" points="1928.5,-114.6 1932,-124.6 1935.5,-114.6 1928.5,-114.6"/>
</g>
<!-- ProductModule&#45;&gt;AppModule -->
<g id="edge5" class="edge">
<title>ProductModule&#45;&gt;AppModule</title>
<path fill="none" stroke="black" d="M1516,-160.83C1516,-177.2 1516,-198.8 1516,-198.8 1516,-198.8 1442.97,-198.8 1442.97,-198.8"/>
<polygon fill="black" stroke="black" points="1442.97,-195.3 1432.97,-198.8 1442.97,-202.3 1442.97,-195.3"/>
</g>
<!-- UserModule&#45;&gt;AppModule -->
<g id="edge6" class="edge">
<title>UserModule&#45;&gt;AppModule</title>
<path fill="none" stroke="black" d="M1629,-161.09C1629,-183.01 1629,-216.8 1629,-216.8 1629,-216.8 1442.73,-216.8 1442.73,-216.8"/>
<polygon fill="black" stroke="black" points="1442.73,-213.3 1432.73,-216.8 1442.73,-220.3 1442.73,-213.3"/>
</g>
<!-- AppService -->
<g id="node8" class="node">
<title>AppService</title>
<ellipse fill="#fdb462" stroke="black" cx="1049" cy="-142.8" rx="56.75" ry="18"/>
<text text-anchor="middle" x="1049" y="-138.6" font-family="Times,serif" font-size="14.00">AppService</text>
</g>
<!-- AppService&#45;&gt;AppModule -->
<g id="edge7" class="edge">
<title>AppService&#45;&gt;AppModule</title>
<path fill="none" stroke="black" d="M1049,-161.09C1049,-183.01 1049,-216.8 1049,-216.8 1049,-216.8 1339.06,-216.8 1339.06,-216.8"/>
<polygon fill="black" stroke="black" points="1339.06,-220.3 1349.06,-216.8 1339.06,-213.3 1339.06,-220.3"/>
</g>
<!-- AuthService -->
<g id="node9" class="node">
<title>AuthService</title>
<ellipse fill="#fdb462" stroke="black" cx="215" cy="-66.8" rx="59.11" ry="18"/>
<text text-anchor="middle" x="215" y="-62.6" font-family="Times,serif" font-size="14.00">AuthService</text>
</g>
<!-- AuthService&#45;&gt;AuthModule -->
<g id="edge9" class="edge">
<title>AuthService&#45;&gt;AuthModule</title>
<path fill="none" stroke="black" d="M215,-84.84C215,-98.09 215,-113.8 215,-113.8 215,-113.8 1174,-113.8 1174,-113.8 1174,-113.8 1174,-114.88 1174,-114.88"/>
<polygon fill="black" stroke="black" points="1170.5,-114.6 1174,-124.6 1177.5,-114.6 1170.5,-114.6"/>
</g>
<!-- JwtStrategy -->
<g id="node10" class="node">
<title>JwtStrategy</title>
<ellipse fill="#fdb462" stroke="black" cx="81" cy="-66.8" rx="56.77" ry="18"/>
<text text-anchor="middle" x="81" y="-62.6" font-family="Times,serif" font-size="14.00">JwtStrategy</text>
</g>
<!-- JwtStrategy&#45;&gt;AuthModule -->
<g id="edge10" class="edge">
<title>JwtStrategy&#45;&gt;AuthModule</title>
<path fill="none" stroke="black" d="M81,-85.04C81,-100.37 81,-119.8 81,-119.8 81,-119.8 1152.11,-119.8 1152.11,-119.8 1152.11,-119.8 1152.11,-120.29 1152.11,-120.29"/>
<polygon fill="black" stroke="black" points="1148.61,-114.68 1152.11,-124.68 1155.61,-114.68 1148.61,-114.68"/>
</g>
<!-- BagService -->
<g id="node11" class="node">
<title>BagService</title>
<ellipse fill="#fdb462" stroke="black" cx="370" cy="-66.8" rx="55.6" ry="18"/>
<text text-anchor="middle" x="370" y="-62.6" font-family="Times,serif" font-size="14.00">BagService</text>
</g>
<!-- BagService&#45;&gt;BagModule -->
<g id="edge12" class="edge">
<title>BagService&#45;&gt;BagModule</title>
<path fill="none" stroke="black" d="M370,-84.9C370,-95.89 370,-107.8 370,-107.8 370,-107.8 1263.32,-107.8 1263.32,-107.8 1263.32,-107.8 1263.32,-114.48 1263.32,-114.48"/>
<polygon fill="black" stroke="black" points="1259.82,-114.48 1263.32,-124.48 1266.82,-114.48 1259.82,-114.48"/>
</g>
<!-- CategoryService -->
<g id="node12" class="node">
<title>CategoryService</title>
<ellipse fill="#fdb462" stroke="black" cx="541" cy="-66.8" rx="75.28" ry="18"/>
<text text-anchor="middle" x="541" y="-62.6" font-family="Times,serif" font-size="14.00">CategoryService</text>
</g>
<!-- CategoryService&#45;&gt;CategoryModule -->
<g id="edge14" class="edge">
<title>CategoryService&#45;&gt;CategoryModule</title>
<path fill="none" stroke="black" d="M541,-84.8C541,-93.8 541,-102.8 541,-102.8 541,-102.8 1372.52,-102.8 1372.52,-102.8 1372.52,-102.8 1372.52,-114.67 1372.52,-114.67"/>
<polygon fill="black" stroke="black" points="1369.02,-114.67 1372.52,-124.67 1376.02,-114.67 1369.02,-114.67"/>
</g>
<!-- PrismaService -->
<g id="node14" class="node">
<title>PrismaService</title>
<ellipse fill="#fdb462" stroke="black" cx="1791" cy="-142.8" rx="66.64" ry="18"/>
<text text-anchor="middle" x="1791" y="-138.6" font-family="Times,serif" font-size="14.00">PrismaService</text>
</g>
<!-- PrismaService&#45;&gt;PrismaModule -->
<g id="edge16" class="edge">
<title>PrismaService&#45;&gt;PrismaModule</title>
<path fill="none" stroke="black" d="M1791,-124.77C1791,-104.03 1791,-72.8 1791,-72.8 1791,-72.8 1628.27,-72.8 1628.27,-72.8"/>
<polygon fill="black" stroke="black" points="1628.27,-69.3 1618.27,-72.8 1628.27,-76.3 1628.27,-69.3"/>
</g>
<!-- ProductService -->
<g id="node15" class="node">
<title>ProductService</title>
<ellipse fill="#fdb462" stroke="black" cx="726" cy="-66.8" rx="70.07" ry="18"/>
<text text-anchor="middle" x="726" y="-62.6" font-family="Times,serif" font-size="14.00">ProductService</text>
</g>
<!-- ProductService&#45;&gt;ProductModule -->
<g id="edge18" class="edge">
<title>ProductService&#45;&gt;ProductModule</title>
<path fill="none" stroke="black" d="M726,-84.94C726,-91.26 726,-96.8 726,-96.8 726,-96.8 1492.11,-96.8 1492.11,-96.8 1492.11,-96.8 1492.11,-114.62 1492.11,-114.62"/>
<polygon fill="black" stroke="black" points="1488.61,-114.62 1492.11,-124.62 1495.61,-114.62 1488.61,-114.62"/>
</g>
<!-- UserService -->
<g id="node16" class="node">
<title>UserService</title>
<ellipse fill="#fdb462" stroke="black" cx="894" cy="-66.8" rx="58.46" ry="18"/>
<text text-anchor="middle" x="894" y="-62.6" font-family="Times,serif" font-size="14.00">UserService</text>
</g>
<!-- UserService&#45;&gt;UserModule -->
<g id="edge20" class="edge">
<title>UserService&#45;&gt;UserModule</title>
<path fill="none" stroke="black" d="M894,-84.99C894,-88.34 894,-90.8 894,-90.8 894,-90.8 1596.74,-90.8 1596.74,-90.8 1596.74,-90.8 1596.74,-114.61 1596.74,-114.61"/>
<polygon fill="black" stroke="black" points="1593.24,-114.61 1596.74,-124.61 1600.24,-114.61 1593.24,-114.61"/>
</g>
</g>
</svg>
